<?xml version="1.0" standalone="no"?>
<!DOCTYPE svg PUBLIC "-//W3C//DTD SVG 20010904//EN"
 "http://www.w3.org/TR/2001/REC-SVG-20010904/DTD/svg10.dtd">
<svg version="1.0" xmlns="http://www.w3.org/2000/svg"
 width="2048.000000pt" height="2048.000000pt" viewBox="0 0 2048.000000 2048.000000"
 preserveAspectRatio="xMidYMid meet">

<g transform="translate(0.000000,2048.000000) scale(0.100000,-0.100000)"
fill="#000000" stroke="none">
<path d="M8507 14155 c-200 -28 -430 -100 -566 -177 -250 -140 -450 -369 -532
-607 -18 -50 -19 -92 -19 -555 0 -276 4 -507 9 -514 9 -15 264 -42 601 -64
393 -25 1430 -14 1708 18 l53 6 -6 547 c-4 300 -11 571 -16 600 -26 152 -210
347 -483 513 -84 51 -114 78 -86 78 20 0 179 -90 271 -152 165 -112 276 -233
320 -347 21 -54 22 -81 35 -646 7 -324 13 -591 13 -591 1 -1 16 0 34 2 17 2
63 6 100 9 l68 7 -6 426 c-9 590 -14 669 -52 758 -41 99 -95 177 -183 265
-157 158 -354 286 -540 353 -201 73 -505 103 -723 71z"/>
<path d="M6941 12279 c-132 -15 -175 -63 -132 -145 23 -42 109 -126 174 -169
17 -11 42 -28 56 -37 14 -10 32 -21 38 -24 9 -4 2 -19 -22 -49 -19 -23 -35
-46 -35 -51 0 -5 -7 -17 -14 -27 -13 -16 -16 -16 -59 0 -26 9 -49 14 -53 10
-4 -3 0 -27 8 -52 13 -38 13 -45 1 -45 -43 0 -10 -81 78 -189 93 -116 245
-213 389 -250 38 -9 72 -20 75 -23 3 -3 20 -72 37 -154 16 -82 34 -159 39
-172 14 -36 32 -15 63 74 24 66 28 94 32 247 7 218 23 265 123 377 96 107 181
241 181 284 0 11 8 14 28 11 178 -31 839 -45 1221 -26 130 6 254 14 277 17 41
6 41 6 47 -31 6 -36 77 -160 116 -201 11 -12 22 -39 25 -60 3 -22 3 -32 0 -24
-17 38 -50 73 -89 93 -23 12 -66 35 -96 51 -77 41 -198 48 -284 16 -33 -12
-91 -26 -130 -32 -74 -9 -85 -17 -85 -60 0 -24 4 -28 29 -28 l30 0 -27 -57
c-22 -47 -27 -72 -27 -133 0 -101 24 -165 85 -232 57 -63 118 -96 198 -108
114 -16 218 18 297 96 l44 44 3 -37 c2 -30 8 -39 28 -44 14 -4 19 -7 13 -8
-17 -1 -17 -41 -1 -41 9 0 9 -3 0 -12 -16 -16 -15 -45 1 -51 10 -4 10 -6 0 -6
-7 -1 -13 -10 -13 -20 0 -11 6 -22 13 -25 10 -5 10 -7 0 -12 -7 -3 -13 -14
-13 -24 0 -10 6 -21 13 -23 10 -4 10 -6 0 -6 -7 -1 -13 -10 -13 -20 0 -11 6
-22 13 -25 10 -5 10 -7 0 -12 -7 -3 -13 -14 -13 -24 0 -10 6 -21 13 -23 10 -4
10 -6 0 -6 -7 -1 -13 -10 -13 -20 0 -11 6 -22 13 -24 10 -4 10 -6 0 -6 -7 -1
-13 -12 -13 -25 0 -13 6 -27 13 -29 10 -4 10 -6 0 -6 -7 -1 -13 -10 -13 -20 0
-11 6 -22 13 -25 10 -5 10 -7 0 -12 -7 -3 -13 -14 -13 -25 0 -10 6 -19 13 -19
9 0 9 -2 -1 -9 -8 -4 -12 -19 -10 -32 2 -20 9 -24 38 -24 29 0 36 4 38 24 2
13 -2 28 -10 32 -10 7 -10 9 0 9 6 0 12 9 12 19 0 11 -6 22 -12 25 -10 5 -10
7 0 12 6 3 12 14 12 24 0 10 -6 21 -12 23 -10 4 -10 6 0 6 6 1 12 12 12 25 0
13 -6 27 -12 29 -10 4 -10 6 0 6 6 1 12 10 12 20 0 11 -6 22 -12 24 -10 4 -10
6 0 6 6 1 12 10 12 20 0 11 -6 22 -12 25 -10 5 -10 7 0 12 6 3 12 14 12 24 0
10 -6 21 -12 23 -10 4 -10 6 0 6 15 1 16 33 0 49 -9 9 -9 12 0 12 16 0 15 37
0 43 -10 4 -10 6 0 6 6 1 12 10 12 20 0 11 -6 22 -12 25 -10 5 -10 7 0 12 14
7 16 44 2 44 -16 0 -12 50 5 56 11 5 15 22 15 65 0 44 -4 61 -15 65 -12 5 -15
30 -15 138 l1 131 30 -35 c70 -81 79 -112 90 -328 10 -215 10 -211 46 -294 25
-57 45 -72 57 -43 7 19 23 151 32 267 6 88 6 88 38 97 61 18 219 82 270 109
145 80 243 171 270 249 23 68 21 83 -11 83 -21 0 -24 3 -15 12 7 7 12 23 12
36 0 19 -4 23 -19 19 -25 -6 -33 0 -61 51 -24 42 -58 72 -94 82 -15 4 -5 15
50 50 94 61 182 136 205 173 28 47 25 101 -7 122 -63 41 -295 58 -494 35 -614
-69 -1361 -96 -1941 -70 -241 11 -545 35 -629 50 -70 13 -380 40 -440 39 -25
-1 -78 -5 -119 -10z m2495 -644 c11 -3 26 -16 32 -30 8 -17 20 -25 37 -25 31
0 52 -31 71 -103 24 -94 -4 -190 -79 -267 -60 -61 -116 -84 -207 -84 -60 0
-84 4 -120 23 -152 79 -212 244 -140 388 35 71 53 88 100 100 33 9 260 7 306
-2z m203 -149 c1 -29 -17 -6 -19 24 -1 14 -1 30 0 35 3 13 18 -34 19 -59z m-4
-132 c-3 -29 -11 -57 -17 -60 -8 -5 -9 -1 -4 12 4 10 10 44 13 74 4 30 8 49
11 42 2 -7 1 -38 -3 -68z"/>
<path d="M8254 11700 c-12 -5 -86 -12 -165 -15 -158 -8 -206 -21 -252 -71 -24
-26 -35 -54 -22 -54 3 0 22 7 42 15 19 8 45 15 56 15 12 0 31 12 43 27 21 27
22 27 173 30 118 3 162 0 198 -12 25 -9 66 -19 90 -22 l44 -6 -3 34 c-3 34 -4
34 -63 40 -33 4 -73 12 -88 18 -16 6 -29 11 -30 10 -1 0 -12 -4 -23 -9z"/>
<path d="M17235 11253 c-34 -9 -45 -24 -45 -62 0 -66 -33 -152 -220 -586 -232
-537 -270 -632 -315 -789 -14 -48 -25 -108 -25 -133 0 -89 55 -153 131 -153
47 0 67 23 67 81 1 56 48 187 132 372 57 125 67 140 101 158 88 44 96 32 234
-366 73 -210 106 -291 163 -402 131 -258 285 -355 438 -278 83 42 142 155 80
155 -51 0 -116 40 -194 117 -139 139 -247 305 -500 773 -13 25 -28 49 -33 55
-17 17 -9 26 39 46 116 50 273 134 335 179 77 57 127 127 127 178 0 45 -52
120 -97 138 -38 16 -53 12 -53 -16 0 -19 -88 -114 -196 -212 -74 -67 -276
-228 -286 -228 -13 0 -2 31 59 160 143 300 238 551 249 655 6 57 -14 106 -56
137 -26 19 -101 31 -135 21z"/>
<path d="M13104 11123 c-19 -4 -23 -13 -29 -80 -9 -94 -40 -187 -105 -311
-212 -405 -616 -719 -974 -757 -36 -4 -66 -5 -66 -3 0 3 18 76 40 162 22 86
40 167 40 180 0 30 15 42 65 51 70 12 128 36 198 81 84 54 130 101 190 191 62
93 88 167 89 249 0 58 -3 70 -29 102 -78 97 -258 129 -401 73 -57 -22 -161
-90 -200 -128 -37 -37 -121 -151 -144 -196 -12 -23 -31 -73 -43 -112 -12 -38
-26 -70 -32 -70 -6 0 -58 46 -117 102 -188 181 -281 231 -436 240 -167 10
-330 -49 -442 -160 -89 -88 -142 -222 -106 -270 31 -41 175 -41 205 -1 7 10
13 32 13 49 0 39 26 130 48 164 74 121 203 165 352 121 101 -30 150 -64 317
-221 l142 -134 -5 -43 c-7 -57 -47 -208 -80 -302 -144 -415 -368 -766 -543
-854 -73 -37 -159 -37 -201 2 -38 33 -54 96 -44 167 19 141 143 265 280 281
42 5 55 2 89 -21 37 -26 41 -26 65 -12 31 19 70 90 63 116 -7 26 -53 41 -128
41 -165 0 -335 -126 -420 -311 -25 -54 -30 -77 -30 -145 0 -72 3 -86 30 -129
43 -69 89 -102 169 -122 60 -14 80 -15 152 -5 306 45 571 273 763 658 46 93
48 94 180 94 227 0 392 -139 523 -442 37 -85 112 -289 158 -428 34 -103 97
-237 139 -293 131 -178 302 -126 381 115 12 37 20 79 18 94 -3 23 -10 29 -57
41 -108 27 -173 106 -278 337 -77 169 -143 293 -194 361 -92 126 -235 229
-360 262 -38 9 -69 20 -69 24 0 4 24 12 53 19 329 74 742 421 983 825 66 111
86 173 72 225 -18 64 -70 100 -173 119 -59 11 -73 12 -111 4z"/>
<path d="M2000 11096 c-218 -60 -411 -175 -567 -339 -124 -131 -211 -280 -243
-417 -19 -79 -18 -195 2 -261 21 -68 81 -160 118 -183 39 -22 105 -20 149 5
54 30 65 52 41 82 -11 13 -29 48 -41 78 -30 72 -33 252 -6 349 70 253 248 470
471 570 158 71 343 65 498 -18 81 -43 179 -146 222 -233 51 -104 66 -167 66
-290 0 -218 -77 -399 -240 -558 -105 -103 -248 -177 -390 -202 -79 -13 -90
-20 -90 -56 0 -19 9 -25 53 -37 81 -22 155 -28 235 -16 346 49 666 338 751
679 26 106 27 196 1 294 -75 287 -306 494 -625 562 -111 23 -301 19 -405 -9z"/>
<path d="M1955 10767 l-40 -13 -6 -69 c-7 -68 -69 -271 -154 -500 -210 -565
-315 -908 -315 -1028 0 -100 51 -157 140 -157 23 0 54 7 70 16 24 15 28 25 33
80 8 82 83 305 208 618 221 552 290 767 293 907 1 85 -12 120 -53 139 -38 18
-130 22 -176 7z"/>
<path d="M3959 10586 c-186 -52 -363 -265 -449 -542 -60 -197 -39 -364 59
-444 46 -39 160 -74 208 -65 89 16 154 65 237 174 41 55 41 55 44 25 5 -50 31
-128 51 -152 21 -24 79 -52 108 -52 35 0 119 49 174 102 104 98 238 294 330
481 42 85 43 89 25 102 -10 8 -25 11 -32 7 -7 -4 -32 -45 -56 -92 -121 -233
-318 -490 -375 -490 -62 1 -53 59 35 229 144 276 183 359 207 434 57 177 8
289 -124 289 -66 0 -95 -16 -86 -49 8 -34 -15 -108 -81 -260 -116 -265 -260
-526 -330 -597 -51 -52 -75 -62 -114 -46 -71 29 -86 188 -35 350 54 169 197
418 279 485 46 38 99 47 110 20 3 -8 1 -15 -3 -15 -16 0 -29 -55 -18 -76 14
-26 27 -34 58 -34 40 0 59 29 59 88 0 43 -5 55 -33 85 -51 55 -145 71 -248 43z"/>
<path d="M13950 10582 c-196 -65 -369 -292 -446 -587 -55 -209 -9 -360 131
-429 135 -67 264 -22 377 131 21 29 42 53 47 53 4 0 11 -25 14 -55 8 -74 49
-135 102 -153 35 -12 47 -11 94 3 102 32 275 231 408 470 97 174 104 197 62
208 -22 6 -25 2 -94 -128 -86 -164 -241 -378 -311 -432 -19 -14 -43 -23 -56
-21 -20 3 -23 8 -22 49 0 34 12 68 46 135 220 426 258 516 258 606 0 53 -35
125 -69 142 -41 21 -92 26 -135 13 l-39 -12 -2 -65 c-2 -72 -22 -123 -166
-420 -174 -357 -271 -481 -352 -451 -43 17 -62 64 -62 161 0 125 27 221 110
386 107 211 201 324 270 324 38 0 44 -14 20 -46 -20 -26 -19 -50 5 -74 26 -26
60 -25 89 1 20 18 23 29 19 69 -9 88 -63 131 -172 137 -50 2 -88 -2 -126 -15z"/>
<path d="M15235 10593 c-65 -14 -70 -20 -71 -81 -1 -44 -12 -82 -49 -167 -165
-384 -189 -458 -189 -595 -1 -76 3 -103 19 -134 41 -81 113 -101 206 -57 54
26 147 115 210 201 24 33 46 60 50 60 4 0 8 -37 11 -83 5 -100 26 -141 90
-177 37 -22 55 -25 133 -25 103 0 160 21 260 95 215 158 415 536 415 782 0
128 -40 181 -137 181 -68 0 -83 -17 -88 -96 -6 -96 -30 -210 -82 -377 -70
-228 -149 -379 -237 -457 -80 -70 -168 -65 -174 10 -5 55 19 119 124 334 52
106 108 233 124 282 64 191 21 301 -118 301 -74 0 -95 -13 -87 -52 25 -112
-308 -748 -456 -872 -21 -18 -41 -26 -58 -24 -24 3 -26 7 -25 49 0 48 10 71
165 370 81 154 126 273 136 357 8 66 -25 138 -71 157 -42 18 -77 24 -101 18z"/>
<path d="M18500 10584 c-142 -39 -279 -171 -373 -359 -109 -219 -136 -420 -73
-545 33 -65 54 -85 126 -118 78 -35 149 -35 222 1 56 27 130 98 165 158 25 43
43 37 43 -14 0 -51 34 -123 72 -151 34 -24 102 -24 155 0 98 46 282 279 407
515 58 109 67 143 41 153 -27 10 -43 -5 -71 -67 -15 -34 -60 -115 -100 -179
-164 -263 -279 -378 -323 -325 -17 22 12 106 87 247 158 300 206 414 218 515
8 64 -21 132 -68 159 -35 21 -122 25 -155 8 -17 -10 -20 -18 -16 -49 8 -59
-52 -211 -193 -488 -128 -254 -185 -343 -246 -388 -63 -47 -130 -10 -144 79
-18 122 20 280 107 450 112 217 201 324 271 324 35 0 43 -15 24 -45 -9 -13
-16 -33 -16 -44 0 -24 36 -51 66 -51 28 0 64 44 64 78 0 46 -38 109 -78 128
-49 24 -144 27 -212 8z"/>
<path d="M5183 10578 c-17 -8 -20 -16 -16 -43 8 -47 -16 -119 -113 -336 -98
-219 -149 -363 -166 -461 -11 -60 -10 -72 8 -115 33 -79 116 -117 172 -77 18
13 21 21 16 52 -8 53 30 152 139 362 99 192 168 291 291 418 93 96 124 116
168 107 30 -7 30 -8 24 -52 -3 -25 -31 -95 -62 -157 -68 -135 -127 -281 -155
-384 -28 -100 -24 -219 10 -277 69 -122 188 -105 327 49 134 147 348 496 331
540 -4 9 -17 16 -30 16 -19 0 -30 -14 -62 -82 -47 -97 -169 -284 -250 -386
-67 -83 -114 -117 -150 -108 -50 13 -34 72 88 327 90 185 120 286 121 399 1
79 -3 103 -21 140 -28 57 -66 80 -130 80 -64 0 -143 -46 -238 -141 -39 -38
-74 -69 -78 -69 -3 0 -4 19 -1 43 8 60 -27 134 -72 153 -39 16 -119 17 -151 2z"/>
<path d="M8425 10510 c-55 -18 -100 -43 -247 -142 -78 -52 -147 -73 -192 -58
-49 16 -59 32 -53 87 7 62 35 87 92 80 l40 -6 -24 20 c-48 39 -127 16 -176
-54 -27 -37 -30 -50 -30 -113 0 -70 1 -74 41 -120 82 -98 240 -145 414 -125
179 20 334 74 416 145 l39 34 44 -39 c80 -71 242 -129 401 -144 70 -7 187 12
252 39 84 36 158 136 158 213 0 37 -26 103 -52 133 -43 50 -109 64 -149 30
l-24 -20 30 6 c52 10 81 -9 94 -60 14 -58 0 -91 -45 -106 -57 -19 -146 19
-247 106 -22 18 -71 49 -110 70 -63 33 -80 38 -137 37 -80 -1 -136 -15 -183
-48 -20 -13 -39 -20 -42 -15 -11 17 -97 50 -159 60 -78 13 -80 13 -151 -10z"/>
<path d="M8073 9663 c-51 -122 -54 -440 -6 -615 15 -54 18 -58 45 -58 68 0
249 55 348 106 60 31 80 47 80 63 0 15 13 14 28 -1 10 -10 61 -13 187 -13 126
0 177 3 186 13 18 17 29 15 29 -7 0 -28 159 -107 277 -137 126 -32 144 -31
166 5 19 32 47 191 47 268 0 48 -2 53 -25 59 -14 4 -44 4 -65 0 -23 -4 -40 -2
-40 3 0 12 104 26 119 16 14 -8 14 8 1 115 -12 95 -37 192 -52 201 -14 9 -170
-26 -253 -57 -87 -33 -185 -85 -185 -99 0 -6 -72 -10 -205 -10 -147 0 -205 3
-205 11 0 45 -314 174 -422 174 -36 0 -40 -3 -55 -37z"/>
<path d="M7496 9027 c-8 -12 -20 -56 -26 -97 -10 -69 -63 -200 -81 -200 -4 0
-29 -18 -55 -41 -27 -22 -107 -69 -179 -104 l-130 -63 -170 -207 c-93 -114
-194 -235 -222 -269 -29 -33 -78 -97 -110 -141 l-58 -80 0 -105 c0 -79 4 -113
17 -136 9 -16 37 -81 63 -144 25 -63 49 -117 53 -120 4 -3 33 -38 65 -78 82
-102 94 -107 322 -122 173 -11 195 -11 250 5 33 10 78 18 99 20 30 1 46 9 70
36 16 18 37 33 46 31 9 -1 53 9 97 23 114 36 163 87 163 171 0 29 3 34 23 34
28 0 101 50 118 81 6 13 9 47 7 80 l-4 59 35 0 c45 0 95 30 122 72 16 27 19
45 16 96 -4 45 -1 62 8 62 7 0 46 -11 86 -25 41 -14 79 -26 85 -27 12 -1 24
-87 24 -169 0 -55 24 -89 62 -89 13 0 43 -23 79 -60 36 -37 66 -60 81 -61 12
-1 37 -3 53 -5 83 -9 560 -4 588 6 18 6 45 30 62 53 27 37 43 48 105 77 12 6
16 37 22 144 13 257 78 694 110 739 24 34 19 41 -20 32 -32 -7 -56 -49 -93
-159 -14 -45 -39 -74 -39 -47 0 8 44 153 56 185 3 8 -157 11 -538 11 -299 0
-569 3 -600 8 l-57 7 24 -36 c18 -27 25 -50 25 -85 0 -58 -11 -62 -68 -24 -51
33 -110 41 -169 22 -26 -9 -78 -21 -114 -26 -86 -14 -409 -15 -409 -1 0 6 35
36 78 68 171 125 233 281 182 458 -28 96 -54 149 -75 158 -33 12 -65 6 -79
-17z"/>
</g>
</svg>
